<svg width="48" height="48" viewBox="0 0 48 48" fill="none" xmlns="http://www.w3.org/2000/svg">
<rect width="48" height="48" rx="6" fill="#323238"/>
<g clip-path="url(#clip0_61385:212)">
<path d="M38.4167 10.75H15.0833C13.2417 10.75 11.75 12.2417 11.75 14.0833V37.4167C11.75 39.2583 13.2417 40.75 15.0833 40.75H38.4167C40.2583 40.75 41.75 39.2583 41.75 37.4167V14.0833C41.75 12.2417 40.2583 10.75 38.4167 10.75ZM21.75 34.0833H17.545V22.4167H21.75V34.0833ZM19.5733 20.2783C18.2883 20.2783 17.43 19.4217 17.43 18.2783C17.43 17.135 18.2867 16.2783 19.715 16.2783C21 16.2783 21.8583 17.135 21.8583 18.2783C21.8583 19.4217 21.0017 20.2783 19.5733 20.2783ZM36.75 34.0833H32.68V27.7067C32.68 25.9433 31.595 25.5367 31.1883 25.5367C30.7817 25.5367 29.425 25.8083 29.425 27.7067C29.425 27.9783 29.425 34.0833 29.425 34.0833H25.22V22.4167H29.425V24.045C29.9667 23.095 31.0517 22.4167 33.0867 22.4167C35.1217 22.4167 36.75 24.045 36.75 27.7067V34.0833Z" fill="white"/>
</g>
<defs>
<clipPath id="clip0_61385:212">
<rect width="30" height="30" fill="white" transform="translate(8 7)"/>
</clipPath>
</defs>
</svg>
